<svg width="30" height="30" viewBox="0 0 30 30" fill="none" xmlns="http://www.w3.org/2000/svg">
<path d="M26.9409 5.00097C26.8273 4.98926 26.7128 4.98926 26.5992 5.00097H3.26589C3.11634 5.00327 2.96778 5.02569 2.82422 5.06763L14.8659 17.0593L26.9409 5.00097Z" fill="white" fill-opacity="0.8"/>
<path d="M28.1741 6.1582L16.0408 18.2415C15.7285 18.552 15.3061 18.7262 14.8658 18.7262C14.4254 18.7262 14.003 18.552 13.6908 18.2415L1.66576 6.24987C1.62879 6.38574 1.60919 6.52574 1.60742 6.66654V23.3332C1.60742 23.7752 1.78302 24.1992 2.09558 24.5117C2.40814 24.8243 2.83206 24.9999 3.27409 24.9999H26.6074C27.0494 24.9999 27.4734 24.8243 27.7859 24.5117C28.0985 24.1992 28.2741 23.7752 28.2741 23.3332V6.66654C28.2675 6.49292 28.2337 6.3214 28.1741 6.1582ZM4.41576 23.3332H3.25742V22.1415L9.31576 16.1332L10.4908 17.3082L4.41576 23.3332ZM26.5908 23.3332H25.4241L19.3491 17.3082L20.5241 16.1332L26.5824 22.1415L26.5908 23.3332Z" fill="white" fill-opacity="0.8"/>
</svg>
